# xmcd
#
# Track frame offsets:
#	225
#	13302
#	23400
#	42857
#	54888
#	67939
#	82148
#	91632
#	110151
#	121259
#
# Disc length: 1803 seconds
#
# Revision: 1
# Processed by: cddbd v1.5.2PL0 Copyright (c) Steve Scherf et al.
# Submitted via: audiograbber 1.83.01
#
DISCID=7407080a
DTITLE=Karen Cruise - For Always
DYEAR=1997
DGENRE=Country
TTITLE0=I can't keep my heart from loving you
TTITLE1=Driving me crazy
TTITLE2=Not in so many words
TTITLE3=Ride'em Cowboy
TTITLE4=Crossroads
TTITLE5=Family ties
TTITLE6=Anything for you
TTITLE7=Arms of love
TTITLE8=For always
TTITLE9=Close your eyes
EXTD=
EXTT0=
EXTT1=
EXTT2=
EXTT3=
EXTT4=
EXTT5=
EXTT6=
EXTT7=
EXTT8=
EXTT9=
PLAYORDER=
